<svg width="13" height="17" viewBox="0 0 13 17" fill="none" xmlns="http://www.w3.org/2000/svg">
<path d="M7 9.5C8.02109 9.5 8.90739 8.947 9.52132 8.12843C10.1351 7.31001 10.5 6.20229 10.5 5C10.5 3.79771 10.1351 2.68999 9.52132 1.87157C8.90739 1.053 8.02109 0.5 7 0.5C5.97891 0.5 5.09261 1.053 4.47868 1.87157C3.86487 2.68999 3.5 3.79771 3.5 5C3.5 6.20229 3.86487 7.31001 4.47868 8.12843C5.09261 8.947 5.97891 9.5 7 9.5Z" stroke="#333333"/>
<path d="M1 16L1.461 14.9243C2.09132 13.4536 3.53747 12.5 5.13758 12.5H8.48279C10.2687 12.5 11.8383 13.6839 12.3289 15.4011L12.5 16" stroke="#333333"/>
</svg>
